<svg viewBox="0 0 64 64" xml:space="preserve" xmlns="http://www.w3.org/2000/svg"><g fill="#ffffff" class="fill-0072ff"><path d="M8 54.7c0 .7.6 1.3 1.3 1.3h9.3c.7 0 1.3-.6 1.3-1.3V23.9c0-.7-.6-1.3-1.3-1.3H9.3c-.7 0-1.3.6-1.3 1.3v30.8zM46.6 22.3c-4.5 0-7.7 1.8-9.4 3.7-.4.4-1.1.1-1.1-.5v-1.6c0-.7-.6-1.3-1.3-1.3h-9.4c-.7 0-1.3.6-1.3 1.3.1 5.7 0 25.4 0 30.7 0 .7.6 1.3 1.3 1.3h9.5c.7 0 1.3-.6 1.3-1.3V37.9c0-1 0-2 .3-2.7.8-2 2.6-4.1 5.7-4.1 4.1 0 6 3.1 6 7.6v15.9c0 .7.6 1.3 1.3 1.3h9.3c.7 0 1.3-.6 1.3-1.3V37.4c-.1-10.3-6-15.1-13.5-15.1zM13.9 18.9c3.8 0 6.1-2.4 6.1-5.4-.1-3.2-2.3-5.5-6-5.5s-6 2.3-6 5.4c0 3.1 2.3 5.5 5.9 5.5z"></path></g></svg>